<svg xmlns="http://www.w3.org/2000/svg" width="24" height="24" viewBox="0 0 24 24"><path fill-rule="evenodd" clip-rule="evenodd" d="M20.414 2H20a1 1 0 110-2h3a1 1 0 011 1v3a1 1 0 11-2 0v-.758L18.242 7H19a1 1 0 110 2h-3a1 1 0 01-1-1V5a1 1 0 112 0v.414L20.414 2zm-12 9h3.172L2 20.586v-3.172L8.414 11zm-2.828 0H3a1 1 0 00-1 1v2.586L5.586 11zM12 22H9.414L13 18.414V21a1 1 0 01-1 1zm-4.992 2H3a3 3 0 01-3-3v-9a3 3 0 013-3h9a3 3 0 013 3v9a3 3 0 01-3 3H7.008zm-3.594-2h3.172L13 15.586v-3.172L3.414 22zM4.5 1.25a1.25 1.25 0 11-2.5 0 1.25 1.25 0 012.5 0zm17 7a1.25 1.25 0 102.5 0 1.25 1.25 0 00-2.5 0zm-5-7a1.25 1.25 0 11-2.5 0 1.25 1.25 0 012.5 0zm5 19a1.25 1.25 0 102.5 0 1.25 1.25 0 00-2.5 0zm-9-19a1.25 1.25 0 11-2.5 0 1.25 1.25 0 012.5 0zm9 15a1.25 1.25 0 102.5 0 1.25 1.25 0 00-2.5 0zm-13-15a1.25 1.25 0 11-2.5 0 1.25 1.25 0 012.5 0zm13 11a1.25 1.25 0 102.5 0 1.25 1.25 0 00-2.5 0zm-17-7a1.25 1.25 0 11-2.5 0 1.25 1.25 0 012.5 0zm12.5 15a1.25 1.25 0 102.5 0 1.25 1.25 0 00-2.5 0z"/></svg>