<svg xmlns="http://www.w3.org/2000/svg" width="150" height="50" viewBox="0 0 150 50"><defs><linearGradient id="logo_gradient_1" x1="20.026" y1="0" x2="20.026" y2="48" gradientUnits="userSpaceOnUse"><stop stop-color="#195A9B"/><stop offset="1" stop-color="#364975"/></linearGradient><linearGradient id="logo_gradient_2" x1="20.146" y1="20.582" x2="20.146" y2="35.317" gradientUnits="userSpaceOnUse"><stop stop-color="#195A9B"/><stop offset="1" stop-color="#364975"/></linearGradient></defs><path fill-rule="evenodd" clip-rule="evenodd" d="M48.253 19.776c1.08.374 2.263.56 3.549.56 1.117 0 2.16-.12 3.13-.363.968-.243 1.815-.635 2.542-1.176a6.066 6.066 0 001.76-2.1c.447-.86.718-1.904.81-3.136h-4.358c-.15 1.063-.569 1.876-1.258 2.435-.689.542-1.564.812-2.626.812-.54 0-1.08-.102-1.62-.308-.523-.224-.998-.578-1.426-1.063-.41-.505-.745-1.167-1.006-1.989-.26-.84-.391-1.876-.391-3.107v-.56c0-1.177.121-2.157.363-2.94.261-.785.596-1.42 1.006-1.905.41-.485.876-.83 1.397-1.036a4.68 4.68 0 011.677-.308c1.006 0 1.853.262 2.542.784.69.523 1.137 1.344 1.342 2.464h4.359c-.075-1.176-.345-2.193-.81-3.052a5.942 5.942 0 00-1.789-2.1c-.727-.56-1.574-.97-2.543-1.232a11.865 11.865 0 00-3.101-.392c-1.23 0-2.385.187-3.465.56a7.506 7.506 0 00-2.794 1.736c-.783.784-1.407 1.792-1.872 3.024C43.224 6.598 43 8.064 43 9.78v.56c0 1.793.214 3.323.643 4.592.447 1.27 1.062 2.306 1.844 3.109a7.257 7.257 0 002.766 1.735zm17.319.532a6.8 6.8 0 00.614.029c.913 0 1.695-.094 2.347-.28a4.926 4.926 0 001.76-.813 6.08 6.08 0 001.342-1.483c.41-.616.81-1.363 1.202-2.24L79.459.4h-4.36l-4.358 10.5L65.264.4h-4.526L68.7 14.988c-.167.354-.316.662-.447.923a2.62 2.62 0 01-.447.617c-.168.149-.382.26-.643.335-.242.075-.568.113-.978.113h-.614a21.18 21.18 0 01-.503-.056v3.332c.149.018.316.037.503.055zm22.83.029c-1.118 0-2.162-.122-3.13-.364-.969-.243-1.816-.635-2.543-1.176a6.065 6.065 0 01-1.76-2.1c-.447-.86-.717-1.904-.81-3.136h4.358c.15 1.063.569 1.876 1.258 2.435.689.542 1.564.812 2.626.812.522 0 1.025-.084 1.51-.252a3.75 3.75 0 001.312-.868c.41-.41.746-.942 1.006-1.596.28-.653.466-1.456.56-2.408h-6.763V8.38h6.734c-.186-1.717-.68-2.94-1.48-3.668-.783-.746-1.742-1.12-2.879-1.12-1.006 0-1.853.262-2.542.784-.69.523-1.137 1.344-1.342 2.464h-4.359c.075-1.176.336-2.193.783-3.052.465-.858 1.062-1.558 1.788-2.1A7.468 7.468 0 0185.3.456a11.865 11.865 0 013.102-.392c1.248 0 2.403.196 3.465.588a7.069 7.069 0 012.794 1.764c.801.784 1.425 1.792 1.872 3.024.448 1.214.671 2.66.671 4.34v.56c0 1.793-.233 3.323-.699 4.592-.447 1.27-1.07 2.306-1.872 3.109a7.223 7.223 0 01-2.794 1.735c-1.062.374-2.207.56-3.437.56zm13.361-1.736c1.36 1.157 3.334 1.736 5.924 1.736 1.36 0 2.542-.14 3.548-.42 1.025-.3 1.872-.7 2.543-1.205.671-.522 1.174-1.138 1.509-1.848a5.625 5.625 0 00.503-2.38c0-1.269-.317-2.296-.95-3.08-.615-.802-1.518-1.344-2.711-1.624.969-.317 1.705-.83 2.208-1.54.503-.728.754-1.605.754-2.632 0-1.736-.605-3.089-1.816-4.06-1.211-.989-3.074-1.484-5.588-1.484-2.534 0-4.424.523-5.672 1.568-1.249 1.027-1.919 2.53-2.012 4.508h4.359c.074-.896.372-1.54.894-1.932.54-.41 1.35-.616 2.431-.616 1.062 0 1.835.215 2.319.644.484.411.726.962.726 1.652 0 .355-.055.691-.167 1.008a2.082 2.082 0 01-.559.84c-.242.224-.568.411-.978.56-.41.131-.904.196-1.481.196h-2.068v2.856h2.068c1.453 0 2.459.252 3.018.756.577.486.866 1.149.866 1.989 0 .84-.298 1.502-.894 1.988-.596.485-1.546.727-2.85.727-1.211 0-2.115-.252-2.711-.756-.596-.522-.94-1.26-1.034-2.211h-4.358c.093 1.997.819 3.583 2.179 4.76zm-55.62 17.5c-.392 0-.765-.067-1.117-.2a2.618 2.618 0 01-.938-.64 3.176 3.176 0 01-.649-1.11c-.16-.447-.24-.98-.24-1.6v-.2c0-.6.08-1.117.24-1.55.16-.434.376-.79.649-1.07s.585-.487.938-.62c.352-.14.725-.21 1.117-.21.38 0 .726.05 1.038.15.32.1.6.243.839.43.24.186.432.416.578.69.153.273.25.583.29.93h-.998c-.093-.454-.29-.794-.589-1.02-.3-.227-.685-.34-1.157-.34-.247 0-.486.046-.719.14a1.69 1.69 0 00-.629.45c-.18.2-.326.466-.439.8-.106.333-.16.74-.16 1.22v.2c0 .506.06.933.18 1.28.12.34.273.616.46.83.185.213.395.366.628.46.233.093.459.14.678.14.52 0 .925-.127 1.218-.38.293-.254.469-.58.529-.98h.998c-.053.386-.16.72-.32 1-.16.273-.362.5-.608.68-.24.18-.516.313-.829.4-.306.08-.635.12-.987.12zm4.039-5.4h.878v4l2.734-4h.879V36h-.879v-4l-2.734 4h-.878v-5.3zm7.188 5.24c.293.106.61.16.949.16.552 0 1.024-.15 1.417-.45.392-.307.652-.724.778-1.25h-.898c-.093.28-.253.5-.48.66-.219.16-.491.24-.817.24-.193 0-.38-.034-.56-.1a1.373 1.373 0 01-.478-.33 1.74 1.74 0 01-.34-.59c-.08-.247-.12-.54-.12-.88v-.2c0-.32.04-.594.12-.82.087-.227.2-.41.34-.55.14-.147.3-.254.479-.32.18-.074.366-.11.559-.11.186 0 .349.023.489.07.14.046.259.11.359.19.106.08.193.176.26.29.072.106.136.223.189.35h.898a2.338 2.338 0 00-.26-.67 1.973 1.973 0 00-1.098-.9 2.514 2.514 0 00-.837-.13c-.313 0-.616.056-.909.17-.286.106-.538.27-.758.49-.22.213-.396.483-.529.81a2.98 2.98 0 00-.2 1.13v.2c0 .453.06.85.18 1.19.127.34.296.623.51.85.212.22.465.386.758.5zm5.548-4.46h-1.806v-.78h4.49v.78h-1.806V36h-.878v-4.52zm4.815 4.46c.306.106.629.16.968.16.28 0 .542-.034.788-.1.253-.067.476-.164.669-.29.2-.134.366-.297.499-.49.14-.194.236-.417.29-.67h-.859c-.093.233-.25.416-.469.55-.213.133-.519.2-.918.2-.2 0-.4-.03-.599-.09a1.483 1.483 0 01-.918-.81c-.1-.214-.15-.477-.15-.79h4.012v-.56c0-.78-.213-1.384-.639-1.81-.425-.427-1.028-.64-1.806-.64-.326 0-.639.053-.938.16-.293.106-.552.27-.778.49-.22.213-.396.483-.53.81-.132.32-.199.7-.199 1.14v.2c0 .46.07.86.21 1.2.14.34.326.623.559.85.232.22.502.383.808.49zm.32-4.45a2.168 2.168 0 011.197-.01c.193.053.359.14.499.26.14.113.25.266.33.46.086.186.132.416.139.69h-3.184c0-.26.047-.484.14-.67a1.383 1.383 0 01.878-.73zm4.241-.79h.938l1.886 3.3 1.886-3.3h.879V36h-.879v-3.85l-1.566 2.7h-.699l-1.567-2.7V36h-.878v-5.3zm7.911 5.28c.226.08.486.12.778.12.446 0 .825-.097 1.138-.29a1.77 1.77 0 00.679-.71c0 .173.003.33.01.47.006.133.02.276.04.43h.768a6.1 6.1 0 01-.05-.61V32.5c0-.674-.186-1.157-.559-1.45-.366-.3-.861-.45-1.487-.45-.3 0-.572.04-.818.12a2.038 2.038 0 00-.639.31 1.606 1.606 0 00-.419.48c-.1.18-.156.376-.17.59h.879c.02-.18.116-.34.29-.48.172-.147.448-.22.827-.22.406 0 .709.086.909.26.206.173.309.486.309.94v.36h-1.716c-.58 0-1.025.116-1.338.35-.306.233-.459.613-.459 1.14 0 .24.04.46.12.66.08.2.196.373.35.52.152.146.338.263.558.35zm1.547-.76c-.18.053-.373.08-.579.08-.38 0-.659-.08-.838-.24a.795.795 0 01-.26-.61c0-.28.093-.484.28-.61.186-.134.442-.2.768-.2h1.567V34c0 .213-.04.4-.12.56-.08.16-.19.296-.33.41-.139.106-.302.19-.488.25zm6.56 2.88c-.1 0-.2-.01-.299-.03v-.8c.1.02.2.03.3.03.1 0 .186-.017.259-.05a.55.55 0 00.21-.19c.066-.094.136-.227.21-.4.079-.167.169-.387.268-.66l-2.245-5.3h.978L89.71 35l1.556-4.3h.938L90.21 36c-.14.373-.273.693-.4.96a2.803 2.803 0 01-.409.65c-.14.173-.296.296-.469.37-.173.08-.379.12-.618.12zm9.277-7.4h-4.39V36h.877v-4.52h2.635V36h.878v-5.3zm1.593 0H100v1c.18-.354.429-.624.748-.81a2.17 2.17 0 011.128-.29c.665 0 1.198.22 1.597.66.399.433.599 1.08.599 1.94v.2c0 .453-.054.85-.16 1.19a2.418 2.418 0 01-.449.84c-.193.22-.426.386-.699.5-.266.113-.562.17-.888.17-.452 0-.831-.1-1.138-.3-.299-.2-.525-.45-.678-.75V38h-.878v-7.3zm2.495 4.62a1.5 1.5 0 00.598-.12c.187-.087.346-.21.479-.37.14-.16.246-.36.32-.6.079-.24.119-.517.119-.83v-.2c0-.287-.04-.544-.119-.77a1.54 1.54 0 00-.32-.57 1.26 1.26 0 00-.479-.36 1.5 1.5 0 00-.598-.12c-.24 0-.459.04-.659.12-.2.073-.369.18-.509.32-.14.133-.25.293-.329.48-.08.186-.12.386-.12.6v.8c0 .24.04.46.12.66.079.2.189.37.329.51s.309.25.509.33c.2.08.419.12.659.12zm4.373.66c.226.08.485.12.778.12.446 0 .825-.097 1.138-.29.313-.194.539-.43.678-.71 0 .173.004.33.01.47a5.6 5.6 0 00.04.43h.769a5.818 5.818 0 01-.05-.61V32.5c0-.674-.186-1.157-.559-1.45-.366-.3-.862-.45-1.487-.45-.299 0-.572.04-.818.12a2.044 2.044 0 00-.639.31 1.597 1.597 0 00-.419.48c-.1.18-.156.376-.17.59h.879c.019-.18.116-.34.289-.48.173-.147.449-.22.828-.22.406 0 .709.086.908.26.207.173.31.486.31.94v.36h-1.717c-.579 0-1.024.116-1.337.35-.306.233-.459.613-.459 1.14 0 .24.04.46.12.66.08.2.196.373.349.52.153.146.339.263.559.35zm1.547-.76a2.03 2.03 0 01-.579.08c-.379 0-.659-.08-.838-.24a.795.795 0 01-.26-.61c0-.28.093-.484.28-.61.186-.134.442-.2.768-.2h1.567V34c0 .213-.04.4-.12.56-.08.16-.19.296-.329.41-.14.106-.303.19-.489.25zm3.367-4.52h2.295c.652 0 1.131.136 1.437.41.306.266.459.613.459 1.04 0 .113-.02.23-.06.35a1.24 1.24 0 01-.169.32c-.067.1-.15.186-.25.26-.093.073-.199.13-.319.17.326.08.572.233.738.46.173.22.26.48.26.78 0 .46-.153.826-.459 1.1-.306.273-.785.41-1.437.41h-2.495v-5.3zm2.495 4.52c.372 0 .635-.067.788-.2.153-.134.23-.324.23-.57 0-.254-.077-.447-.23-.58-.153-.14-.416-.21-.788-.21h-1.617v1.56h1.617zm-.2-2.28c.379 0 .642-.067.788-.2.154-.134.23-.317.23-.55a.636.636 0 00-.23-.52c-.146-.127-.409-.19-.788-.19h-1.417v1.46h1.417zm2.948 2.26a.815.815 0 01-.149-.01v.88c.099.02.199.03.299.03.259 0 .489-.06.689-.18.199-.12.362-.324.489-.61.133-.294.232-.684.299-1.17.066-.487.1-1.1.1-1.84v-.82h2.035V36h.879v-5.3h-3.792v1.4c0 .613-.017 1.12-.05 1.52a5.28 5.28 0 01-.15.95c-.067.233-.156.396-.269.49a.558.558 0 01-.38.14zm8.432.9a2.92 2.92 0 01-.968-.16 2.234 2.234 0 01-.808-.49 2.489 2.489 0 01-.559-.85c-.139-.34-.209-.74-.209-1.2v-.2c0-.44.066-.82.199-1.14a2.35 2.35 0 01.529-.81 2.17 2.17 0 01.779-.49c.299-.107.612-.16.938-.16.778 0 1.38.213 1.806.64.426.426.639 1.03.639 1.81v.56h-4.012c0 .313.05.576.15.79a1.47 1.47 0 00.918.81c.199.06.399.09.598.09.4 0 .706-.067.918-.2.22-.134.376-.317.47-.55h.858c-.053.253-.15.476-.29.67a1.833 1.833 0 01-.499.49 2.252 2.252 0 01-.668.29c-.246.066-.509.1-.789.1zm-.049-4.7c-.207 0-.406.03-.599.09a1.38 1.38 0 00-.878.73c-.094.186-.14.41-.14.67h3.183a1.737 1.737 0 00-.139-.69 1.136 1.136 0 00-.33-.46 1.27 1.27 0 00-.499-.26 2.165 2.165 0 00-.598-.08zm4.521-.7h-.878V36h.878v-2.31h2.734V36h.878v-5.3h-.878v2.21h-2.734V30.7zm5.213 0h.878v4l2.734-4h.878V36h-.878v-4l-2.734 4h-.878v-5.3zm6.18 2.66c.193.26.509.44.948.54l-1.437 2.1h.978l1.288-2.02h1.347V36h.878v-5.3h-2.295c-.699 0-1.208.143-1.527.43-.313.286-.469.69-.469 1.21 0 .413.096.753.289 1.02zm.829-.38c-.16-.147-.24-.36-.24-.64s.08-.494.24-.64c.166-.147.442-.22.828-.22h1.467v1.72h-1.467c-.386 0-.662-.074-.828-.22zM45.195 48.1c-.552 0-1.024-.15-1.417-.45-.392-.307-.652-.724-.778-1.25h.898c.093.28.25.5.47.66.225.16.501.24.827.24.2 0 .383-.03.55-.09.172-.06.322-.154.448-.28.133-.127.243-.29.33-.49.086-.207.14-.457.16-.75h-2.086v-.78h2.085c-.046-.534-.206-.917-.479-1.15-.272-.24-.608-.36-1.008-.36-.186 0-.349.023-.489.07a1.29 1.29 0 00-.369.19c-.1.08-.186.176-.26.29a1.58 1.58 0 00-.179.35H43c.047-.24.13-.464.25-.67.12-.207.269-.387.449-.54.186-.154.402-.274.648-.36.253-.087.536-.13.848-.13.34 0 .652.056.938.17.293.106.546.27.759.49.22.213.39.483.509.81.126.326.19.703.19 1.13v.2c0 .453-.06.85-.18 1.19-.12.34-.286.623-.5.85-.205.22-.458.386-.758.5-.292.106-.612.16-.958.16zm2.996-.03c.1.02.2.03.3.03.259 0 .488-.06.688-.18.2-.12.362-.324.489-.61.133-.294.233-.684.3-1.17.066-.487.099-1.1.099-1.84v-.82h2.036V48h.878v-5.3h-3.792v1.4c0 .613-.017 1.12-.05 1.52a5.17 5.17 0 01-.15.95c-.066.233-.156.396-.27.49a.557.557 0 01-.379.14.821.821 0 01-.15-.01v.88zm8.582.03c-.34 0-.662-.054-.968-.16a2.233 2.233 0 01-.809-.49 2.486 2.486 0 01-.559-.85c-.14-.34-.21-.74-.21-1.2v-.2c0-.44.067-.82.2-1.14.133-.327.31-.597.53-.81.225-.22.485-.384.778-.49.3-.107.612-.16.938-.16.778 0 1.38.213 1.806.64.426.426.639 1.03.639 1.81v.56h-4.012c0 .313.05.576.15.79a1.483 1.483 0 00.918.81c.2.06.399.09.599.09.399 0 .705-.067.918-.2.22-.134.375-.317.469-.55h.858c-.053.253-.15.476-.29.67a1.84 1.84 0 01-.498.49 2.257 2.257 0 01-.67.29c-.245.066-.508.1-.787.1zm-.05-4.7c-.207 0-.406.03-.6.09a1.381 1.381 0 00-.877.73c-.093.186-.14.41-.14.67h3.183a1.739 1.739 0 00-.14-.69 1.136 1.136 0 00-.329-.46 1.275 1.275 0 00-.499-.26 2.167 2.167 0 00-.598-.08zm4.521-.7h-.878V48h.878v-2.32h.699L63.938 48h1.118l-2.395-2.76 2.295-2.54h-1.038l-1.975 2.22h-.699V42.7zm6.07.78h-1.807v-.78h4.49v.78h-1.805V48h-.879v-4.52zm4.502-.78h-.818V50h.878v-2.95c.153.3.38.55.679.75.306.2.685.3 1.137.3.327 0 .623-.057.889-.17.272-.114.505-.28.698-.5.193-.227.343-.507.45-.84.106-.34.159-.737.159-1.19v-.2c0-.86-.2-1.507-.599-1.94-.399-.44-.931-.66-1.597-.66-.425 0-.801.096-1.127.29a1.92 1.92 0 00-.749.81v-1zm2.276 4.5c-.187.08-.386.12-.6.12-.239 0-.458-.04-.658-.12-.2-.08-.369-.19-.509-.33s-.25-.31-.329-.51c-.08-.2-.12-.42-.12-.66v-.8c0-.214.04-.414.12-.6.08-.187.19-.347.33-.48.139-.14.309-.247.508-.32.2-.08.42-.12.659-.12.213 0 .412.04.599.12.186.08.346.2.479.36.14.153.246.343.319.57.08.226.12.483.12.77v.2c0 .313-.04.59-.12.83-.073.24-.18.44-.32.6-.132.16-.292.283-.478.37zm5.241.9a2.92 2.92 0 01-.968-.16 2.355 2.355 0 01-.808-.5 2.487 2.487 0 01-.559-.85c-.14-.34-.21-.737-.21-1.19v-.2c0-.427.07-.804.21-1.13a2.313 2.313 0 011.367-1.3c.306-.114.629-.17.968-.17.34 0 .662.056.968.17a2.312 2.312 0 011.367 1.3c.14.326.21.703.21 1.13v.2c0 .453-.07.85-.21 1.19-.14.34-.326.623-.559.85-.232.22-.502.386-.808.5-.306.106-.629.16-.968.16zm0-.8c.2 0 .4-.034.599-.1.2-.074.376-.184.529-.33.153-.154.276-.35.369-.59.1-.24.15-.534.15-.88v-.2c0-.32-.05-.594-.15-.82a1.61 1.61 0 00-.37-.56 1.393 1.393 0 00-.528-.32c-.2-.067-.4-.1-.599-.1-.2 0-.399.033-.599.1-.2.066-.375.173-.528.32-.154.146-.28.333-.38.56-.093.226-.14.5-.14.82v.2c0 .346.047.64.14.88.1.24.226.436.38.59.153.146.329.256.528.33.2.066.4.1.6.1zM84 42.7h-.878V48H84v-2.31h2.734V48h.878v-5.3h-.878v2.21H84V42.7zm5.213 0h.878v2.21h2.735V42.7h.878V48h-.878v-2.31H90.09V48h-.878v-5.3zm7.319 5.24c.306.106.628.16.968.16.339 0 .662-.054.968-.16.305-.114.575-.28.808-.5.233-.227.419-.51.559-.85.14-.34.209-.737.209-1.19v-.2c0-.427-.07-.804-.21-1.13a2.312 2.312 0 00-1.367-1.3 2.765 2.765 0 00-.967-.17c-.34 0-.662.056-.968.17a2.313 2.313 0 00-1.367 1.3c-.14.326-.21.703-.21 1.13v.2c0 .453.07.85.21 1.19.14.34.325.623.558.85.233.22.503.386.809.5zm1.566-.74c-.2.066-.399.1-.598.1-.2 0-.4-.034-.6-.1a1.506 1.506 0 01-.528-.33 1.801 1.801 0 01-.38-.59 2.441 2.441 0 01-.14-.88v-.2c0-.32.047-.594.14-.82.1-.227.227-.414.38-.56.153-.147.33-.254.529-.32.2-.067.399-.1.599-.1.2 0 .399.033.598.1.2.066.376.173.53.32.152.146.275.333.368.56.1.226.15.5.15.82v.2c0 .346-.05.64-.15.88-.093.24-.216.436-.369.59-.153.146-.33.256-.529.33zm3.19-4.5h.878v4l2.734-4h.878V48h-.878v-4l-2.734 4h-.878v-5.3zm2.245-.65c-.519 0-.898-.11-1.138-.33-.239-.227-.359-.55-.359-.97h.858c0 .453.213.68.639.68.439 0 .659-.227.659-.68h.838c0 .42-.12.743-.359.97-.24.22-.619.33-1.138.33zm6.57 5.63c.379.28.901.42 1.567.42.359 0 .675-.044.948-.13.279-.087.509-.2.688-.34a1.398 1.398 0 00.559-1.13c0-.294-.073-.55-.219-.77-.147-.22-.406-.38-.779-.48.28-.107.483-.254.609-.44a1.2 1.2 0 00.19-.67c0-.227-.04-.434-.12-.62a1.232 1.232 0 00-.369-.48 1.7 1.7 0 00-.629-.32 2.854 2.854 0 00-.878-.12c-.313 0-.596.04-.849.12-.246.073-.459.18-.638.32a1.61 1.61 0 00-.429.5c-.1.186-.16.39-.18.61h.878c.04-.24.15-.424.33-.55.186-.134.482-.2.888-.2.372 0 .652.073.838.22.186.146.279.32.279.52 0 .253-.079.45-.239.59-.153.14-.413.21-.779.21h-.848v.72h.908c.426 0 .726.076.898.23.173.146.26.35.26.61 0 .22-.106.41-.319.57-.207.153-.539.23-.998.23-.373 0-.676-.067-.908-.2a.854.854 0 01-.41-.6h-.878c.04.506.25.9.629 1.18zm6.52.42c-.292 0-.552-.04-.778-.12a1.693 1.693 0 01-.559-.35 1.464 1.464 0 01-.349-.52c-.08-.2-.12-.42-.12-.66 0-.527.153-.907.459-1.14.313-.234.759-.35 1.337-.35h1.717v-.36c0-.454-.103-.767-.31-.94-.199-.174-.502-.26-.908-.26-.379 0-.655.073-.828.22-.173.14-.269.3-.289.48h-.879c.014-.214.07-.41.17-.59a1.61 1.61 0 01.419-.48c.18-.134.393-.237.639-.31.246-.08.519-.12.818-.12.626 0 1.121.15 1.487.45.373.293.559.776.559 1.45V47.39a6.1 6.1 0 00.05.61h-.769a5.116 5.116 0 01-.039-.43 9.533 9.533 0 01-.01-.47c-.14.28-.366.516-.679.71-.313.193-.692.29-1.138.29zm.19-.8c.206 0 .399-.027.579-.08.186-.06.349-.144.489-.25.139-.114.249-.25.329-.41.08-.16.12-.347.12-.56v-.36h-1.567c-.326 0-.582.066-.768.2-.187.126-.28.33-.28.61 0 .246.087.45.26.61.179.16.459.24.838.24zm8.337-4.6h-4.391V48h.878v-4.52h2.635V48h.878v-5.3zm1.593 0h.878v4l2.734-4h.878V48h-.878v-4l-2.734 4h-.878v-5.3zm7.188 5.24c.293.106.609.16.948.16.552 0 1.025-.15 1.417-.45.393-.307.652-.724.779-1.25h-.898c-.094.28-.253.5-.479.66-.22.16-.493.24-.819.24-.193 0-.379-.034-.559-.1a1.381 1.381 0 01-.479-.33 1.76 1.76 0 01-.339-.59c-.08-.247-.12-.54-.12-.88v-.2c0-.32.04-.594.12-.82.087-.227.2-.41.339-.55.14-.147.3-.254.479-.32.18-.074.366-.11.559-.11.187 0 .35.023.489.07.14.046.26.11.36.19.106.08.192.176.259.29.073.106.136.223.19.35h.898a2.325 2.325 0 00-.26-.67 1.971 1.971 0 00-1.097-.9 2.521 2.521 0 00-.839-.13c-.312 0-.615.056-.908.17a2.09 2.09 0 00-.758.49c-.22.213-.396.483-.529.81-.133.326-.2.703-.2 1.13v.2c0 .453.06.85.18 1.19.126.34.296.623.509.85.213.22.466.386.758.5zm4.34-5.24h.879v2h1.267c.665 0 1.154.146 1.467.44.319.293.479.7.479 1.22 0 .506-.16.906-.479 1.2-.313.293-.802.44-1.467.44h-2.146v-5.3zm2.096 4.52c.413 0 .702-.074.868-.22.167-.147.25-.364.25-.65 0-.287-.083-.504-.25-.65-.166-.147-.455-.22-.868-.22h-1.217v1.74h1.217zm4.026-4.52h-.879V48h.879v-2.31h.748c.027.406.107.763.24 1.07.139.3.316.55.528.75.22.2.47.35.749.45.286.093.585.14.898.14.339 0 .655-.054.948-.16.299-.114.559-.28.778-.5.22-.227.393-.51.519-.85.133-.34.2-.737.2-1.19v-.2c0-.427-.067-.804-.2-1.13a2.222 2.222 0 00-.519-.81 2.06 2.06 0 00-.778-.49 2.606 2.606 0 00-.948-.17c-.313 0-.609.05-.888.15a2.163 2.163 0 00-.749.43 2.317 2.317 0 00-.528.73c-.14.286-.223.62-.25 1h-.748V42.7zm3.742 4.5a1.707 1.707 0 01-1.158 0 1.457 1.457 0 01-.499-.33 1.76 1.76 0 01-.339-.59 2.623 2.623 0 01-.13-.88v-.2c0-.32.044-.594.13-.82.087-.227.2-.414.339-.56.147-.147.313-.254.499-.32a1.707 1.707 0 011.158 0c.186.066.349.173.489.32.146.146.263.333.349.56.087.226.13.5.13.82v.2c0 .346-.043.64-.13.88a1.65 1.65 0 01-.349.59c-.14.146-.303.256-.489.33z"/><path fill-rule="evenodd" clip-rule="evenodd" d="M19.826 0l1.515 1.84-1.502 1.94-1.515-1.927L19.826 0zm.05 9.39l-2.992.638s-1.627-2.216-1.89-2.904c-.964-2.417.801-3.418 2.566-3.43l2.291 2.678 2.266-2.691c1.765-.013 3.543.976 2.604 3.405-.25.676-1.853 2.917-1.853 2.917-.425 0-2.992-.613-2.992-.613zm8.125 3.843c1.477.551 2.754-.338 4.031-1.352-1.54 2.204-2.904 2.416-3.618 2.416.063.414.05.877-.125 1.303-.639-1.328-1.49-1.378-2.617-1.24.464-.976 1.453-1.177 2.016-1.177l.113-.037c.018.006.037.015.056.025.019.01.038.019.056.025.013 0 .022.003.032.006.009.003.018.006.03.006l.014.01c.007.005.012.008.012.015zm-16.362 2.442c.626-1.327 1.477-1.39 2.604-1.264-.476-.964-1.465-1.165-2.028-1.152l-.113-.038c-.018.006-.037.016-.056.025-.019.01-.038.019-.056.025a.148.148 0 00-.042.008.09.09 0 01-.02.005s-.014.012-.014.025c-1.464.563-2.754-.3-4.043-1.315 1.552 2.179 2.917 2.379 3.643 2.366-.075.426-.05.89.125 1.315zm8.015 22.535c-1.393.15-5.325.65-6.087 1.777-.032.045-.051.093-.07.138-.036.092-.066.167-.193.15-.844-.13-2.336.304-3.318.59-.24.07-.45.132-.613.174 0 0 .614 1.427.626 1.452.038.075.05.163.025.25-.014.065-.192.092-.345.116-.113.017-.213.033-.218.06a.325.325 0 01-.125-.138l-.626-1.427c-.288.05-.601 0-.889-.188-.4-.25-.6-.739-.513-1.19.062-.287.225-.525.438-.675a448.008 448.008 0 00-1.72-3.714c-.248-.53-.303-.647-.32-.718l-.163.012c-.389.075-.664-.313-.589-.475-.313.125-1.364-.2-1.264-1.39.2.1.626.25.626.25s-.2-1.014.338-1.314c.563-.25 1.214.538 1.214.538s.15-.438.2-.663c.977.65.564 1.702.276 1.865.175.037.3.5 0 .764l-.05.05c.099.117.179.293.918 1.923l1.197 2.634c.15.012.3.037.439.087.325.125.563.376.688.676.739.388 1.89.088 3.005-.588 0 .012.914-.513 2.065-1.177h-.025l4.497-2.663.576 2.814zm.646 1.057l-.21 1.07-.222-1.084c-1.485.184-5.265.803-5.739 2.187-.2.563.463 1.327 1.24 1.477.012 0 .025 0 .037-.012.013-.013.025-.025.025-.038.313-1.727 2.304-2.19 3.693-2.479-1.377.614-2.829 1.828-3.017 3.155-.112.739.639 1.365 1.302 1.54.038.013.063-.012.063-.05.093-1.532 1.036-2.634 1.662-3.365l.14-.166c-.1.338-.175.576-.187.576l-.01.026a13.62 13.62 0 00-.666 2.366 6.311 6.311 0 00-.15 1.176c0 .764 1.514 2.266 1.727 2.354h.025c.213-.075 1.728-1.59 1.728-2.354 0-.388-.063-.788-.15-1.176-.182-1.032-.527-1.981-.647-2.31l-.03-.082s-.075-.238-.187-.576l.152.179c.628.732 1.57 1.83 1.65 3.352 0 .038.038.063.063.05.664-.175 1.415-.814 1.302-1.54-.2-1.34-1.652-2.541-3.017-3.155 1.402.288 3.38.739 3.693 2.48 0 .012.013.024.025.037.013.012.025.012.038.012.789-.15 1.44-.914 1.24-1.477-.415-1.349-4.016-1.97-5.573-2.172zm.22-1.116l.546-2.776.727.443c1.054.624 2.623 1.542 3.728 2.19h.002c.758.444 1.297.76 1.302.765.35.15 1.603.5 2.216.25v-.093c-.004-.491-.01-1.22.801-1.785l1.29 1.29 1.327-1.302s.976.8.901 1.928c-.125 1.114-.75 1.99-2.19 1.99-.79 0-1.168-.343-1.66-.789l-.068-.062c-.739-.438-2.128-.4-3.355-.088-.122.033-.154-.034-.196-.12a.504.504 0 00-.092-.143c-.883-.928-3.992-1.63-5.279-1.698zm.769-3.91l6.45 3.943c-.037-.2-.05-.4-.05-.613 0-1.89 1.54-3.43 3.43-3.43 1.89 0 3.43 1.54 3.43 3.43 0 .588-.287 1.465-.4 1.615.075-.1 3.055-.801 3.055-.801s2.741 2.416 2.791 2.44c.038-.05.1-.15.013-.462-.061-.206-.156-.474-.269-.794-.463-1.314-1.233-3.495-1.233-5.741 0-3.343.338-5.784.338-5.784h-.013c1.102-6.147-3.63-11.718-7.574-11.981-1.027-.15-2.116.275-2.73.676-.637.429-.847.92-1.032 1.356-.047.112-.093.22-.144.321-.1.188-.275.439-.639.677-.7.3-1.189.225-1.49.1-2.916-1.665-.826-7.161 2.742-6.999 1.388.062 1.375.394 1.367.58-.002.04-.003.074.01.096.401-1.151-.388-2.716-1.727-2.528-1.277-1.284-2.352-.62-3.59.146-.985.609-2.072 1.281-3.446 1.093.1.576.576 1.352 1.377 1.502-.339.498-1.306 2.26-1.716 3.337l1.566 7.617 5.509-3.705-3.681 5.608 8.964 1.753-8.977 1.865 3.756 5.597-5.546-3.669-.541 2.755zm-1.537-17.94c-.46-1.082-1.417-2.727-1.753-3.205.801-.163 1.265-.94 1.365-1.515-1.375.205-2.468-.457-3.457-1.055-1.243-.753-2.322-1.407-3.592-.11-1.34-.175-2.103 1.39-1.702 2.542.013-.023.011-.057.01-.098-.012-.186-.03-.519 1.354-.59 3.306-.188 5.384 4.506 3.368 6.547-.012-.012-.025-.038-.025-.038s-.764.84-2.016.314a1.91 1.91 0 01-.638-.677c-.059-.111-.11-.23-.163-.352-.184-.428-.391-.907-1.014-1.325-.613-.413-1.702-.826-2.729-.676-3.956.263-8.713 5.871-7.562 12.043h.038c.05.376.338 2.68.338 5.722 0 2.249-.769 4.43-1.232 5.745-.284.807-.453 1.286-.258 1.253h.013c0-.038 2.829-2.429 2.829-2.429s3.718.601 3.743.639a.094.094 0 00.025-.007c.01-.003.02-.006.025-.006l-1.464-3.13a2.504 2.504 0 01-2.342-2.491 2.493 2.493 0 012.504-2.491 2.5 2.5 0 012.504 2.49c0 .602-.213 1.14-.563 1.566l1.753 3.63a52.275 52.275 0 013.067-.375l6.669-3.952-.535-2.608-5.47 3.693 3.768-5.734-9.14-1.803 9.002-1.865-3.706-5.534 5.496 3.493 1.49-7.61zM31.87 36.083l-.802.776-.776-.776.789-.901.789.901z" fill="url(#logo_gradient_1)"/><path d="M18.85 28.757l-.038.013 2.742-.013-.037-.025-1.352-2.291-1.315 2.316zm8.65-.826l-5.245-1.027 2.154-3.28-3.23 2.166-1.077-5.208-1.002 5.133-3.217-2.053 2.178 3.242-5.27 1.09 5.346 1.051-2.204 3.355 3.205-2.153 1.052 5.07 1.014-5.183 3.255 2.141-2.204-3.28 5.246-1.064zm-7.36 1.978a1.94 1.94 0 01-1.94-1.928c0-1.064.85-1.94 1.915-1.94a1.94 1.94 0 011.94 1.927 1.92 1.92 0 01-1.915 1.94z" fill="url(#logo_gradient_2)"/></svg>