<svg version="1.1" xmlns="http://www.w3.org/2000/svg" width="24" height="24" viewBox="0 0 24 24">
    <path fill-rule="evenodd" clip-rule="evenodd" d="M7.286 0c.578 0 1.048.448 1.048 1v1h7.333V1c0-.552.469-1 1.047-1 .579 0 1.048.448 1.048 1v1C20.655 2 23 4.239 23 7v12c0 2.761-2.345 5-5.238 5H6.238C3.345 24 1 21.761 1 19V7c0-2.761 2.345-5 5.238-5V1c0-.552.47-1 1.048-1zm-4.19 11v8c0 1.657 1.406 3 3.142 3h11.524c1.736 0 3.143-1.343 3.143-3v-8H3.095zm17.809-2H3.095V7c0-1.657 1.407-3 3.143-3v2c0 .552.47 1 1.048 1 .578 0 1.048-.448 1.048-1V4h7.333v2c0 .552.469 1 1.047 1 .579 0 1.048-.448 1.048-1V4c1.736 0 3.143 1.343 3.143 3v2zM8.77 14.048c0 .578-.414 1.047-.923 1.047l-.923.001c-.51 0-.923-.47-.923-1.048 0-.578.413-1.047.923-1.047L7.847 13c.51 0 .923.469.923 1.048zm0 4c0 .578-.414 1.047-.923 1.047l-.923.001c-.51 0-.923-.47-.923-1.048 0-.578.413-1.047.923-1.047L7.847 17c.51 0 .923.469.923 1.048zm8.308-2.953c.51 0 .923-.469.923-1.047 0-.579-.414-1.048-.924-1.048h-.922c-.51 0-.923.47-.923 1.048 0 .579.413 1.048.923 1.048h.922zM18 18.048c0 .578-.414 1.047-.924 1.047l-.922.001c-.51 0-.923-.47-.923-1.048 0-.578.413-1.047.923-1.047l.922-.001c.51 0 .924.469.924 1.048zm-5.539-2.953c.51 0 .923-.469.923-1.047 0-.579-.413-1.048-.923-1.048h-.923c-.51 0-.923.47-.923 1.048 0 .579.413 1.048.923 1.048h.923zm.923 2.953c0 .578-.413 1.047-.923 1.047l-.923.001c-.51 0-.923-.47-.923-1.048 0-.578.413-1.047.923-1.047l.923-.001c.51 0 .923.469.923 1.048z" />
</svg>