<svg version="1.1" xmlns="http://www.w3.org/2000/svg" width="24" height="24" viewBox="0 0 24 24">
    <path fill-rule="evenodd" clip-rule="evenodd" d="M8.502 5.443c1.259-.726 1.818-2.105 1.762-3.475h3.955c-.098 1.414.455 2.855 1.755 3.606 1.258.726 2.73.522 3.887-.21L21.84 8.79c-1.272.623-2.242 1.822-2.242 3.32 0 1.498.968 2.696 2.237 3.32l-1.986 3.44c-1.19-.848-2.763-1.125-4.1-.353-1.336.771-1.882 2.27-1.745 3.725h-3.996c.183-1.497-.354-3.06-1.73-3.855-1.338-.773-2.912-.495-4.103.354l-1.999-3.462c1.39-.59 2.478-1.838 2.478-3.428 0-1.5-.971-2.7-2.244-3.323l1.986-3.44c1.192.85 2.768 1.13 4.107.356zM9.772 0C8.724 0 8.157.977 8.272 1.782c.133.93-.22 1.648-.756 1.957-.566.327-1.433.247-2.2-.431-.632-.558-1.82-.6-2.367.346L.452 7.981c-.535.926.061 1.92.838 2.206.922.339 1.395 1.026 1.395 1.663 0 .67-.533 1.405-1.552 1.715-.819.249-1.485 1.271-.927 2.237l2.522 4.37c.546.945 1.734.904 2.365.347.767-.676 1.633-.756 2.2-.429.58.335.95 1.162.71 2.2-.193.832.359 1.92 1.474 1.92h5.043c1.092 0 1.65-1.049 1.484-1.874-.201-1.001.163-1.79.728-2.116.566-.326 1.431-.247 2.198.428.631.556 1.818.597 2.364-.348l2.497-4.324c.534-.925-.06-1.918-.836-2.205-.918-.34-1.39-1.026-1.39-1.661 0-.636.473-1.323 1.393-1.662.777-.287 1.372-1.28.838-2.206L21.32 3.954c-.523-.906-1.651-.909-2.292-.407-.739.578-1.535.631-2.07.322-.552-.318-.91-1.072-.743-2.04C16.356 1.015 15.794 0 14.724 0H9.771zM8.683 12.3a3.444 3.444 0 116.888 0 3.444 3.444 0 01-6.888 0zm3.444-5.412a5.412 5.412 0 100 10.825 5.412 5.412 0 000-10.825z" />
</svg>